<svg width="515" height="500" viewBox="0 0 515 500" fill="none" xmlns="http://www.w3.org/2000/svg">
<ellipse cx="257.5" cy="250" rx="257.5" ry="250" fill="#F9BBE6"/>
<path d="M271.02 190C271.353 189 271.52 187.667 271.52 186C271.52 183.333 270.77 181.167 269.27 179.5C267.936 177.833 265.77 176 262.77 174C260.27 172.167 258.436 170.583 257.27 169.25C256.27 167.917 256.02 166.333 256.52 164.5C257.02 162.167 258.27 160.583 260.27 159.75C262.27 158.917 265.436 158.5 269.77 158.5H340.77C344.27 158.5 346.936 159.083 348.77 160.25C350.77 161.417 351.77 162.917 351.77 164.75C351.77 165.583 351.52 166.667 351.02 168C350.52 169.167 349.77 170.25 348.77 171.25C347.936 172.083 347.103 172.75 346.27 173.25C345.603 173.583 345.103 173.917 344.77 174.25C342.103 175.75 339.936 177.417 338.27 179.25C336.603 181.083 335.186 183.917 334.02 187.75L309.52 274.25C304.52 291.917 296.02 305.083 284.02 313.75C272.02 322.25 256.436 326.5 237.27 326.5C224.436 326.5 213.52 324.667 204.52 321C195.686 317.167 189.02 312.083 184.52 305.75C180.02 299.417 177.77 292.5 177.77 285C177.77 281.333 178.27 277.75 179.27 274.25C181.436 266.75 185.103 261.083 190.27 257.25C195.603 253.417 201.52 251.5 208.02 251.5C215.52 251.5 221.27 253.75 225.27 258.25C229.27 262.75 231.27 268.5 231.27 275.5C231.27 279 230.77 282.5 229.77 286C227.77 293 224.02 298.167 218.52 301.5C221.186 303.167 224.27 304 227.77 304C231.27 304 234.353 302.25 237.02 298.75C239.686 295.25 241.936 290.333 243.77 284L271.02 190Z" fill="white"/>
</svg>
